HIERARCHY
ROOT Hips
{
	OFFSET 0.00000 0.00000 0.00000
	CHANNELS 6 Xposition Yposition Zposition Zrotation Yrotation Xrotation 
	JOINT LHipJoint
	{
		OFFSET 0 0 0
		CHANNELS 3 Zrotation Yrotation Xrotation
		JOINT LeftUpLeg
		{
			OFFSET 1.32989 -1.57253 0.78074
			CHANNELS 3 Zrotation Yrotation Xrotation
			JOINT LeftLeg
			{
				OFFSET 2.24323 -6.16323 0.00000
				CHANNELS 3 Zrotation Yrotation Xrotation
				JOINT LeftFoot
				{
					OFFSET 2.32677 -6.39275 0.00000
					CHANNELS 3 Zrotation Yrotation Xrotation
					JOINT LeftToeBase
					{
						OFFSET 0.18686 -0.51340 1.95973
						CHANNELS 3 Zrotation Yrotation Xrotation
						End Site
						{
							OFFSET 0.00000 -0.00000 1.02033
						}
					}
				}
			}
		}
	}
	JOINT RHipJoint
	{
		OFFSET 0 0 0
		CHANNELS 3 Zrotation Yrotation Xrotation
		JOINT RightUpLeg
		{
			OFFSET -1.27392 -1.57253 0.78074
			CHANNELS 3 Zrotation Yrotation Xrotation
			JOINT RightLeg
			{
				OFFSET -2.19978 -6.04385 0.00000
				CHANNELS 3 Zrotation Yrotation Xrotation
				JOINT RightFoot
				{
					OFFSET -2.29380 -6.30216 0.00000
					CHANNELS 3 Zrotation Yrotation Xrotation
					JOINT RightToeBase
					{
						OFFSET -0.24624 -0.67655 1.94854
						CHANNELS 3 Zrotation Yrotation Xrotation
						End Site
						{
							OFFSET -0.00000 -0.00000 1.03267
						}
					}
				}
			}
		}
	}
	JOINT LowerBack
	{
		OFFSET 0 0 0
		CHANNELS 3 Zrotation Yrotation Xrotation
		JOINT Spine
		{
			OFFSET -0.05982 2.08655 0.02100
			CHANNELS 3 Zrotation Yrotation Xrotation
			JOINT Spine1
			{
				OFFSET 0.04735 2.08455 -0.01795
				CHANNELS 3 Zrotation Yrotation Xrotation
				JOINT Neck
				{
					OFFSET 0 0 0
					CHANNELS 3 Zrotation Yrotation Xrotation
					JOINT Neck1
					{
						OFFSET -0.10038 1.43781 0.03084
						CHANNELS 3 Zrotation Yrotation Xrotation
						JOINT Head
						{
							OFFSET 0.07701 1.43632 -0.18495
							CHANNELS 3 Zrotation Yrotation Xrotation
							End Site
							{
								OFFSET 0.02744 1.45633 -0.07361
							}
						}
					}
				}
				JOINT LeftShoulder
				{
					OFFSET 0 0 0
					CHANNELS 3 Zrotation Yrotation Xrotation
					JOINT LeftArm
					{
						OFFSET 2.75061 0.74389 0.25227
						CHANNELS 3 Zrotation Yrotation Xrotation
						JOINT LeftForeArm
						{
							OFFSET 4.36901 -0.00000 0.00000
							CHANNELS 3 Zrotation Yrotation Xrotation
							JOINT LeftHand
							{
								OFFSET 3.21737 -0.00000 -0.00000
								CHANNELS 3 Zrotation Yrotation Xrotation
								JOINT LeftFingerBase
								{
									OFFSET 0 0 0
									CHANNELS 3 Zrotation Yrotation Xrotation
									JOINT LeftHandIndex1
									{
										OFFSET 0.56431 -0.00000 0.00000
										CHANNELS 3 Zrotation Yrotation Xrotation
										End Site
										{
											OFFSET 0.45496 -0.00000 0.00000
										}
									}
								}
								JOINT LThumb
								{
									OFFSET 0 0 0
									CHANNELS 3 Zrotation Yrotation Xrotation
									End Site
									{
										OFFSET 0.46191 -0.00000 0.46191
									}
								}
							}
						}
					}
				}
				JOINT RightShoulder
				{
					OFFSET 0 0 0
					CHANNELS 3 Zrotation Yrotation Xrotation
					JOINT RightArm
					{
						OFFSET -2.97379 0.79094 0.48377
						CHANNELS 3 Zrotation Yrotation Xrotation
						JOINT RightForeArm
						{
							OFFSET -4.34118 -0.00000 -0.00000
							CHANNELS 3 Zrotation Yrotation Xrotation
							JOINT RightHand
							{
								OFFSET -3.09531 -0.00000 0.00000
								CHANNELS 3 Zrotation Yrotation Xrotation
								JOINT RightFingerBase
								{
									OFFSET 0 0 0
									CHANNELS 3 Zrotation Yrotation Xrotation
									JOINT RightHandIndex1
									{
										OFFSET -0.59745 -0.00000 0.00000
										CHANNELS 3 Zrotation Yrotation Xrotation
										End Site
										{
											OFFSET -0.48168 -0.00000 0.00000
										}
									}
								}
								JOINT RThumb
								{
									OFFSET 0 0 0
									CHANNELS 3 Zrotation Yrotation Xrotation
									End Site
									{
										OFFSET -0.48903 -0.00000 0.48903
									}
								}
							}
						}
					}
				}
			}
		}
	}
}
MOTION
Frames: 7
Frame Time: 0.00588235
0.00 0.00 0.00 -174.7490 -193.1460 8.0840 0.0000 0.0000 0.0000 -21.4291 -1.1825 -9.9625 6.2750 14.6897 46.0758 1.0073 -0.0990 19.0128 0.1216 2.2484 6.1927 0.0000 0.0000 0.0000 22.7679 6.0992 -3.8365 -4.9141 -13.2864 40.4502 0.1805 -8.0284 -5.9706 -0.8432 -5.8572 16.3708 -5.2753 1.2093 -7.1557 0.9959 1.4815 -10.4972 4.0267 1.0449 -7.2390 -5.2479 -3.6294 -19.1667 5.4992 -3.9794 -4.8786 2.4533 -1.8099 1.9748 0.0000 -0.0000 0.0000 46.6040 -9.4827 -73.9654 41.9850 -49.2029 -19.9292 -0.0000 0.0000 -40.6580 57.5101 45.8290 48.3997 -7.1250 0.0000 -0.0000 106.1059 -83.3104 -112.6773 0.0000 -0.0000 0.0000 -54.5309 37.7223 -87.1544 -20.3728 31.0889 -5.7226 0.0000 -0.0000 -23.0675 -92.2947 -33.0588 94.2013 7.1250 -0.0000 -0.0000 -37.9450 55.9130 -54.3909
0.00 0.00 0.00 -181.4450 -145.6600 10.9007 0.0000 0.0000 0.0000 -26.7544 -0.0565 -15.8238 5.9209 14.3512 44.6633 1.0700 1.8158 19.0301 0.0166 0.8313 2.2846 0.0000 0.0000 0.0000 19.0356 5.7718 -10.3278 -5.6405 -14.0707 43.5213 0.1991 -17.0845 9.9633 -5.5073 13.9333 -42.9708 2.3166 2.0064 -4.9704 4.0704 2.7410 -10.6300 2.9530 1.3769 -8.5277 -5.3530 -2.9958 -18.5275 2.5987 -3.3086 -7.6127 1.5505 -1.6650 0.8031 0.0000 0.0000 0.0000 54.2174 -28.6720 -82.0554 18.8479 -29.2292 -4.9564 -0.0000 0.0000 -42.3410 90.6886 -48.8659 -90.9143 -7.1250 0.0000 -0.0000 160.3551 -59.2780 -172.9807 0.0000 0.0000 0.0000 -34.1330 37.9670 -73.9909 -50.6473 53.2533 -26.6920 0.0000 -0.0000 -47.8242 -45.8974 4.3489 -4.4739 7.1250 -0.0000 -0.0000 -14.1782 -23.7618 -7.4864
0.00 0.00 0.00 -180.8740 -138.9620 10.0821 0.0000 0.0000 0.0000 -24.9465 -1.1898 -15.2810 5.9151 14.3456 44.6402 0.9672 3.0522 17.8115 0.0320 1.1543 3.1736 0.0000 0.0000 0.0000 20.8395 4.0581 -11.6319 -5.6888 -14.1198 43.7196 -0.2424 -11.9072 11.4006 -2.8162 10.3913 -30.2535 1.6491 2.3239 -5.6462 2.6329 3.0004 -11.0522 1.8163 1.4566 -8.5533 -6.4273 -4.6772 -18.2509 4.1478 -5.4348 -5.9647 2.0992 -2.7191 1.4992 0.0000 -0.0000 0.0000 53.8081 -33.9841 -78.4028 20.0252 -30.6727 -5.5442 -0.0000 0.0000 -45.8220 87.0496 51.4106 86.2275 -7.1250 0.0000 -0.0000 162.3584 -62.1516 -172.5168 0.0000 -0.0000 0.0000 -57.4119 43.2523 -100.3679 -33.2420 43.5152 -13.5884 0.0000 -0.0000 -71.8776 -60.1880 9.2326 -15.6430 7.1250 -0.0000 -0.0000 -22.0050 -12.7419 -18.0240
0.00 0.00 0.00 -184.5660 -122.9970 10.9198 0.0000 0.0000 0.0000 -21.5262 -1.3809 -11.6605 6.5677 14.9568 47.2199 1.4177 1.9047 21.9740 1.5316 7.8134 22.1486 0.0000 0.0000 0.0000 24.6697 0.8330 -8.3245 -5.4192 -13.8409 42.6037 -0.6988 -10.5948 15.6057 -2.3528 9.5653 -27.5802 -3.8092 0.7632 -8.9379 0.6607 1.0428 -10.6519 2.8583 0.8122 -6.2814 -4.9124 -5.0542 -16.4818 5.4150 -6.3049 -7.3578 2.2249 -3.2055 0.7776 0.0000 0.0000 0.0000 35.1776 -38.2833 -48.5597 29.0670 -40.0801 -10.8038 -0.0000 0.0000 -60.2610 80.3490 50.8100 77.6249 -7.1250 0.0000 -0.0000 158.4983 -67.2727 -168.2553 0.0000 0.0000 0.0000 -72.1289 44.5158 -113.2341 -20.7003 31.4768 -5.8927 0.0000 -0.0000 -54.8512 -94.2861 -26.7586 99.4509 7.1250 -0.0000 -0.0000 -47.6624 56.7871 -68.8430
0.00 0.00 0.00 -347.7370 -128.1790 176.2570 0.0000 0.0000 0.0000 -27.0321 -1.1063 -11.5960 5.3800 13.7993 42.4395 0.6934 1.7924 15.2219 0.1985 -2.8690 -7.9142 0.0000 0.0000 0.0000 19.6527 5.9099 -8.2836 -5.8754 -14.3065 44.4798 0.0193 -13.4778 9.2184 -0.0323 -1.1595 3.1877 1.8049 2.5601 -7.8239 3.4581 3.5418 -11.5310 2.6584 1.9604 -7.9232 -6.6393 -4.3578 -18.8312 6.4877 -3.8356 -7.1993 3.0770 -1.2321 1.1957 0.0000 0.0000 0.0000 65.4827 -30.1961 -79.4422 16.9196 -26.7517 -4.0511 -0.0000 0.0000 -56.9990 102.0474 -46.2949 -106.4480 -7.1250 0.0000 -0.0000 163.3329 -49.1429 -178.2532 0.0000 0.0000 0.0000 -9.1894 42.3666 -52.6773 -74.0406 59.0154 -46.2245 0.0000 -0.0000 -55.0989 -60.4813 15.0262 -24.6027 7.1250 -0.0000 -0.0000 -20.3837 -2.8650 -20.7161
0.00 0.00 0.00 -348.7350 -140.4620 176.7550 0.0000 0.0000 0.0000 -23.7745 -6.4097 -16.5451 5.4365 13.8591 42.6759 0.2553 3.5636 8.9822 0.3646 -3.8788 -10.7358 0.0000 0.0000 0.0000 22.6724 9.6665 -9.0521 -5.2402 -13.6493 41.8504 0.8531 -17.6304 1.1736 -0.1323 -2.3442 6.4580 -0.0384 3.0513 -4.0722 2.2938 4.2332 -12.1503 2.2274 2.3686 -10.8764 -7.4157 -5.4065 -19.3077 6.8082 -5.1470 -5.2157 2.9259 -1.8983 1.8058 -0.0000 0.0000 0.0000 81.0803 -37.2218 -120.5691 9.8649 -16.5279 -1.4363 -0.0000 0.0000 -36.3200 93.4217 -48.1873 -94.5865 -7.1250 0.0000 -0.0000 160.8852 -56.9559 -174.2565 -0.0000 0.0000 0.0000 11.0189 71.8243 -33.8299 -45.4629 50.9933 -22.5979 0.0000 -0.0000 -57.4613 -50.8408 8.8461 -10.6931 7.1250 -0.0000 -0.0000 -16.4615 -16.4748 -11.6112
0.00 0.00 0.00 -353.7910 -174.0620 175.3000 0.0000 0.0000 0.0000 -16.0262 -15.7811 -22.4513 5.5296 13.9565 43.0634 -0.0048 3.9188 2.5345 3.5797 -11.5791 -34.2588 0.0000 0.0000 0.0000 28.2866 8.9339 -17.4605 -4.8642 -13.2292 40.2325 0.5242 -15.3543 3.5827 -0.5174 -4.6104 12.8005 -3.7530 1.7722 -0.7899 -0.5020 2.1515 -9.6453 1.3775 1.4073 -9.8975 -8.3951 -8.8405 -18.6036 6.5489 -9.5533 -5.7374 2.6522 -4.0311 1.8493 0.0000 -0.0000 0.0000 82.3327 -55.6400 -119.2806 27.1122 -38.2860 -9.5686 -0.0000 0.0000 -58.8110 99.6109 -49.0203 -102.6421 -7.1250 0.0000 -0.0000 164.7571 -51.9687 -177.3335 0.0000 -0.0000 0.0000 -46.4046 66.5600 -94.1409 -31.8299 42.4111 -12.6260 0.0000 -0.0000 -44.2879 -91.0334 -26.7308 92.2964 7.1250 -0.0000 -0.0000 -41.6114 52.0915 -61.5670
